<svg id="Camada_1" data-name="Camada 1" xmlns="http://www.w3.org/2000/svg" viewBox="0 0 100 100"><defs><style>.cls-1{fill:#fff;}.cls-2{fill:#0b132b;}</style></defs><rect class="cls-1" width="100" height="100" rx="16"/><path class="cls-2" d="M45.08,46.86a12.51,12.51,0,0,1-5.87,22.55,18.88,18.88,0,0,1-2.13.13H19.37c-1.46,0-1.9-.45-1.9-1.9V31.92c0-1.47.44-1.9,1.89-1.9,5.37,0,10.75,0,16.12,0a11,11,0,0,1,9.74,16.56ZM24.83,62.24c.23,0,.41,0,.59,0H37.73a5.14,5.14,0,0,0,1.18-.11,5.18,5.18,0,0,0-1.13-10.25c-4.1,0-8.21,0-12.31,0-.2,0-.41,0-.64.06Zm0-17.78c3.85,0,7.61,0,11.36,0a3.63,3.63,0,0,0,1.91-.85,3.41,3.41,0,0,0,1-3.87,3.6,3.6,0,0,0-3.43-2.37c-3.47,0-6.94,0-10.4,0a4.83,4.83,0,0,0-.48.06Z"/><path class="cls-2" d="M59.83,56.27a23.16,23.16,0,0,0,1,2.38,7.4,7.4,0,0,0,11.5,2.21,1.28,1.28,0,0,1,.84-.33q3.45,0,6.91,0c.77,0,1.06.36.75,1-2.43,4.7-6.19,7.7-11.49,8.38A14.92,14.92,0,0,1,53.11,59.29a15.58,15.58,0,0,1,11.15-20A15,15,0,0,1,81.91,50.44a33.69,33.69,0,0,1,.61,4.38,1.35,1.35,0,0,1-1.15,1.41,6,6,0,0,1-1,0H59.83ZM60.92,50H73.71A7.1,7.1,0,0,0,67.6,46.3,7.74,7.74,0,0,0,60.92,50Z"/><path class="cls-2" d="M66.92,31.58h6.35c1.11,0,1.46.35,1.47,1.48,0,.93,0,1.85,0,2.78s-.39,1.33-1.29,1.33h-13c-.88,0-1.29-.38-1.31-1.24q0-1.55,0-3.09c0-.88.42-1.25,1.29-1.25C62.58,31.57,64.75,31.58,66.92,31.58Z"/></svg>