<svg id="Camada_1" data-name="Camada 1" xmlns="http://www.w3.org/2000/svg" viewBox="0 0 100 100"><defs><style>.cls-1{fill:#fff;}.cls-2{fill:#0b132b;}</style></defs><rect class="cls-1" width="100" height="100" rx="16"/><path class="cls-2" d="M81.48,52.35c-.12,1-.22,2-.35,3A31.52,31.52,0,0,1,64.82,78.64a43.83,43.83,0,0,1-4.66,2c-1.37.54-2.34-.2-2.34-1.71,0-2.7,0-5.41,0-8.11A9.23,9.23,0,0,0,57,66.5a19.92,19.92,0,0,0-1.12-1.76c1.1-.19,2.23-.35,3.34-.6a13.38,13.38,0,0,0,7.94-4.66,13.61,13.61,0,0,0,2.62-6.41,20.19,20.19,0,0,0,.17-5.81,11.55,11.55,0,0,0-2.69-6.09A1.06,1.06,0,0,1,67,40a11.29,11.29,0,0,0-.45-7.45.79.79,0,0,0-.68-.32,12.85,12.85,0,0,0-3,.63c-1.57.67-3,1.58-4.58,2.34a1.56,1.56,0,0,1-1,.16,30.54,30.54,0,0,0-14.72,0,1.38,1.38,0,0,1-.95-.16,20.06,20.06,0,0,0-5.74-2.73,13.35,13.35,0,0,0-2-.26c-.31,0-.5.13-.61.46a11.82,11.82,0,0,0-.3,7.59.76.76,0,0,1-.12.64C30.23,44,29.63,47.66,30,51.58a17.43,17.43,0,0,0,1.43,5.62,11.78,11.78,0,0,0,6.59,6.1,22.44,22.44,0,0,0,5.47,1.34l.54.1c-.43.75-.88,1.47-1.26,2.22a3.57,3.57,0,0,0-.37,1.23,1.19,1.19,0,0,1-1,1.12A7,7,0,0,1,35.67,69a6.76,6.76,0,0,1-2.4-2.41,7.48,7.48,0,0,0-2.71-2.79,4.15,4.15,0,0,0-2.93-.66,1,1,0,0,0-.71.45c-.08.16.17.5.33.71a2.34,2.34,0,0,0,.61.52,9.31,9.31,0,0,1,3.66,4.72,7.21,7.21,0,0,0,6.79,4.62A35.1,35.1,0,0,0,42.1,74a1,1,0,0,1,0,.23c0,1.58.06,3.15.06,4.73s-1,2.2-2.47,1.68A31.16,31.16,0,0,1,22.1,65.38a30.15,30.15,0,0,1-3.47-16.79A30.85,30.85,0,0,1,33.37,24a29.22,29.22,0,0,1,20.8-4.47c12.92,2,21.47,9.41,25.82,21.69a26.68,26.68,0,0,1,1.38,7.09,4,4,0,0,0,.11.6Z"/></svg>