<svg id="Camada_1" data-name="Camada 1" xmlns="http://www.w3.org/2000/svg" viewBox="0 0 100 100"><defs><style>.cls-1{fill:#fff;}.cls-2{fill:#0b132b;}</style></defs><rect class="cls-1" width="100" height="100" rx="16"/><path class="cls-2" d="M32.8,49.33q0,11.79,0,23.58c0,.61-.14.77-.76.77-3,0-5.91,0-8.87,0a4.29,4.29,0,0,1-4.62-3.49s-.05-.06-.08-.09V38.56l.74.55L32.75,49.24A.14.14,0,0,0,32.8,49.33Z"/><path class="cls-2" d="M32.75,49.24,19.21,39.11l-.74-.55V31.67c.21-.12.17-.36.22-.54a6.42,6.42,0,0,1,9.69-3.72c1.52,1,2.92,2.17,4.38,3.27Q32.75,40,32.75,49.24Z"/><path class="cls-2" d="M32.75,49.24q0-9.29,0-18.56l8.91,6.65c2.63,2,5.25,3.92,7.86,5.91a.65.65,0,0,0,.95,0q8-6.06,16.12-12.1c.2-.15.4-.28.61-.42,0,.29,0,.58,0,.86q0,8.85,0,17.7a.09.09,0,0,1,0,.07l-9.12,6.81c-2.54,1.9-5.09,3.8-7.62,5.72a.64.64,0,0,1-.93,0q-8-6-16-12c-.23-.18-.47-.34-.7-.5A.14.14,0,0,1,32.75,49.24Z"/><path class="cls-2" d="M67.2,49.33a.09.09,0,0,0,0-.07l.21-.13L81.5,38.59c0,.23,0,.45,0,.68V68.92c0,3-1.75,4.74-4.73,4.74s-5.91,0-8.86,0c-.57,0-.75-.1-.74-.71C67.21,65.08,67.2,57.21,67.2,49.33Z"/><path class="cls-2" d="M81.5,38.59,67.44,49.13l-.21.13q0-8.85,0-17.7c0-.28,0-.57,0-.86,1.49-1.12,2.92-2.32,4.48-3.33a6,6,0,0,1,6.42-.21,6.07,6.07,0,0,1,3.39,5.47C81.56,34.61,81.51,36.6,81.5,38.59Z"/></svg>