<svg id="Camada_1" data-name="Camada 1" xmlns="http://www.w3.org/2000/svg" viewBox="0 0 100 100"><defs><style>.cls-1{fill:#fff;}.cls-2{fill:#0b132b;}</style></defs><rect class="cls-1" width="100" height="100" rx="16"/><path class="cls-2" d="M50,81.52c-4.7,0-9.4,0-14.1,0a17.2,17.2,0,0,1-17-13.85A17.75,17.75,0,0,1,18.48,64q0-14,0-28.05A17.24,17.24,0,0,1,33.26,18.66a18.06,18.06,0,0,1,2.65-.18q14.07,0,28.13,0A17.29,17.29,0,0,1,81.31,33.09a16.23,16.23,0,0,1,.21,2.79c0,9.45,0,18.89,0,28.34A17.12,17.12,0,0,1,70.38,80.4a17.33,17.33,0,0,1-6.33,1.13C59.35,81.51,54.65,81.52,50,81.52Zm.15-57.46V24c-3.79,0-7.58,0-11.37,0a14.44,14.44,0,0,0-2.37.14A14.25,14.25,0,0,0,24,38.37Q23.89,50,24,61.6A14.33,14.33,0,0,0,38.61,76c7.58,0,15.16,0,22.74,0a15,15,0,0,0,4.52-.67C72.81,73.07,76,67.43,76.09,60.9c.12-7.38,0-14.77,0-22.15a18.41,18.41,0,0,0-.23-2.87,14.15,14.15,0,0,0-13-11.78C58.64,23.91,54.37,24.06,50.1,24.06Z"/><path class="cls-2" d="M50,33.71A16.07,16.07,0,0,1,66,49.8a16.38,16.38,0,0,1-16.1,16.43A16.26,16.26,0,0,1,50,33.71Zm-.28,27a10.68,10.68,0,1,0-10.57-11A10.73,10.73,0,0,0,49.75,60.68Z"/><path class="cls-2" d="M63.22,33a3.93,3.93,0,0,1,3.93-3.85A3.66,3.66,0,0,1,70.77,33,3.78,3.78,0,1,1,63.22,33Z"/></svg>