<svg id="Camada_1" data-name="Camada 1" xmlns="http://www.w3.org/2000/svg" viewBox="0 0 100 100"><defs><style>.cls-1{fill:#fff;}.cls-2{fill:#0b132b;}</style></defs><rect class="cls-1" x="0.24" width="100" height="100" rx="16"/><path class="cls-2" d="M53.86,81.53h-13v-42H53.29v5.66c.17-.09.25-.11.28-.16,2.75-4.43,6.86-6.39,11.93-6.54A18.1,18.1,0,0,1,73.9,40c3.45,1.63,5.38,4.47,6.45,8a30.55,30.55,0,0,1,1.16,8.66c0,8.11,0,16.22,0,24.33,0,.12,0,.25,0,.42H68.46v-.87c0-6.88,0-13.76,0-20.64A28,28,0,0,0,68,55.23c-.79-4.31-3.6-5.77-7.61-5.29-3.65.43-5.66,2.56-6.23,6.52a31.88,31.88,0,0,0-.31,4.37c0,6.57,0,13.14,0,19.71Z"/><path class="cls-2" d="M19.53,39.48h13v42h-13Z"/><path class="cls-2" d="M33.59,26A7.57,7.57,0,1,1,26,18.47,7.64,7.64,0,0,1,33.59,26Z"/></svg>