<svg id="Camada_1" data-name="Camada 1" xmlns="http://www.w3.org/2000/svg" viewBox="0 0 100 100"><defs><style>.cls-1{fill:#fff;}.cls-2{fill:#0b132b;}</style></defs><rect class="cls-1" width="100" height="100" rx="16"/><path class="cls-2" d="M19.58,81.53H18.47V80.42c.08-.18.17-.36.24-.55q2.45-7.22,4.9-14.43a1.44,1.44,0,0,0-.11-1.32,29.24,29.24,0,0,1-3.64-10.89,28.93,28.93,0,0,1,2-15.6C26.36,27.37,34.15,21.16,45.13,19c1.16-.24,2.34-.34,3.52-.5h3.81a4.1,4.1,0,0,0,.48.1,30,30,0,0,1,14.61,5A30.28,30.28,0,0,1,81,43.9c.21,1.12.33,2.26.49,3.39v3.82c0,.4-.11.8-.15,1.21a29.84,29.84,0,0,1-5.8,14.95A30.5,30.5,0,0,1,52,79.9a30,30,0,0,1-15.57-3.33,1.39,1.39,0,0,0-1.16-.1c-3.32,1.07-6.64,2.12-10,3.18ZM28.18,72l.67-.18c2.34-.74,4.69-1.47,7-2.24a1.74,1.74,0,0,1,1.62.2A24.6,24.6,0,0,0,70.67,63.1,23.86,23.86,0,0,0,75,51.41a23.6,23.6,0,0,0-2.62-13.27A24.55,24.55,0,0,0,48.38,25a24.55,24.55,0,0,0-21,16.38,23.69,23.69,0,0,0-.56,13.87,23,23,0,0,0,3.62,7.82,1.63,1.63,0,0,1,.22,1.72c-.26.65-.46,1.31-.69,2Z"/><path class="cls-2" d="M59,64a18.31,18.31,0,0,1-5.17-1C47,60.9,42.13,56.31,38.16,50.6a15.71,15.71,0,0,1-3-6.54,9.38,9.38,0,0,1,1.38-6.82,4.41,4.41,0,0,1,2.9-2c.77-.14,1.53-.29,2.3-.41A1.91,1.91,0,0,1,43.93,36c1,2.11,1.85,4.25,2.73,6.39A2.57,2.57,0,0,1,46,44.85a19.66,19.66,0,0,1-1.48,1.8c-.21.24-.26.42-.06.69a23.54,23.54,0,0,0,8.87,7.88c1.15.56,1.17.55,2-.43.57-.68,1.11-1.38,1.66-2.06a1.82,1.82,0,0,1,2.38-.7c.62.23,1.21.52,1.8.8,1.5.71,3,1.44,4.48,2.16a1.74,1.74,0,0,1,1,1.68c.2,4.66-3.68,7-6.84,7.25C59.59,64,59.32,64,59,64Z"/></svg>